<svg width="208" height="208" viewBox="0 0 208 208" fill="none" xmlns="http://www.w3.org/2000/svg">
<rect width="208" height="208" fill="url(#paint0_radial_178_21111)" fill-opacity="0.7"/>
<rect x="80" y="80" width="48" height="48" rx="24" fill="black"/>
<path d="M115.253 94.91C115.393 95.0506 115.472 95.241 115.472 95.4395C115.472 95.638 115.393 95.8284 115.253 95.969L113.688 97.535L110.688 94.535L112.253 92.969C112.394 92.8284 112.584 92.7494 112.783 92.7494C112.982 92.7494 113.173 92.8284 113.313 92.969L115.253 94.9085V94.91ZM112.628 98.594L109.628 95.594L99.4084 105.815C99.3259 105.898 99.2637 105.998 99.2269 106.109L98.0194 109.73C97.9975 109.796 97.9944 109.867 98.0105 109.934C98.0265 110.002 98.061 110.064 98.1102 110.113C98.1594 110.162 98.2213 110.197 98.2889 110.213C98.3566 110.229 98.4274 110.226 98.4934 110.204L102.114 108.997C102.225 108.96 102.326 108.899 102.408 108.817L112.628 98.5955V98.594Z" fill="#FFFFD3"/>
<path fill-rule="evenodd" clip-rule="evenodd" d="M93.5 112.25C93.5 112.847 93.7371 113.419 94.159 113.841C94.581 114.263 95.1533 114.5 95.75 114.5H112.25C112.847 114.5 113.419 114.263 113.841 113.841C114.263 113.419 114.5 112.847 114.5 112.25V103.25C114.5 103.051 114.421 102.86 114.28 102.72C114.14 102.579 113.949 102.5 113.75 102.5C113.551 102.5 113.36 102.579 113.22 102.72C113.079 102.86 113 103.051 113 103.25V112.25C113 112.449 112.921 112.64 112.78 112.78C112.64 112.921 112.449 113 112.25 113H95.75C95.5511 113 95.3603 112.921 95.2197 112.78C95.079 112.64 95 112.449 95 112.25V95.75C95 95.5511 95.079 95.3603 95.2197 95.2197C95.3603 95.079 95.5511 95 95.75 95H105.5C105.699 95 105.89 94.921 106.03 94.7803C106.171 94.6397 106.25 94.4489 106.25 94.25C106.25 94.0511 106.171 93.8603 106.03 93.7197C105.89 93.579 105.699 93.5 105.5 93.5H95.75C95.1533 93.5 94.581 93.7371 94.159 94.159C93.7371 94.581 93.5 95.1533 93.5 95.75V112.25Z" fill="#FFFFD3"/>
<path d="M58.0359 152.119C57.4734 152.119 56.9719 152.023 56.5316 151.83C56.0941 151.636 55.7461 151.368 55.4876 151.024C55.2319 150.678 55.0927 150.276 55.07 149.818H56.1438C56.1665 150.099 56.2631 150.342 56.4336 150.547C56.604 150.749 56.8271 150.905 57.1026 151.016C57.3782 151.126 57.6836 151.182 58.0188 151.182C58.3938 151.182 58.7262 151.116 59.016 150.986C59.3058 150.855 59.533 150.673 59.6978 150.44C59.8626 150.207 59.945 149.938 59.945 149.631C59.945 149.31 59.8654 149.027 59.7063 148.783C59.5472 148.536 59.3143 148.342 59.0075 148.203C58.7006 148.064 58.3256 147.994 57.8825 147.994H57.1836V147.057H57.8825C58.229 147.057 58.533 146.994 58.7944 146.869C59.0586 146.744 59.2646 146.568 59.4123 146.341C59.5629 146.114 59.6381 145.847 59.6381 145.54C59.6381 145.244 59.5728 144.987 59.4421 144.768C59.3114 144.55 59.1268 144.379 58.8881 144.257C58.6523 144.135 58.3739 144.074 58.0529 144.074C57.7518 144.074 57.4677 144.129 57.2006 144.24C56.9364 144.348 56.7205 144.506 56.5529 144.713C56.3853 144.918 56.2944 145.165 56.2802 145.455H55.2575C55.2745 144.997 55.4123 144.597 55.6708 144.253C55.9293 143.906 56.2674 143.636 56.685 143.443C57.1055 143.25 57.5671 143.153 58.07 143.153C58.6097 143.153 59.0728 143.263 59.4592 143.482C59.8455 143.697 60.1424 143.983 60.3498 144.338C60.5572 144.693 60.6609 145.077 60.6609 145.489C60.6609 145.98 60.5316 146.399 60.2731 146.746C60.0174 147.092 59.6694 147.332 59.229 147.466V147.534C59.7802 147.625 60.2106 147.859 60.5202 148.237C60.8299 148.612 60.9847 149.077 60.9847 149.631C60.9847 150.105 60.8555 150.531 60.5969 150.909C60.3413 151.284 59.9918 151.58 59.5487 151.795C59.1055 152.011 58.6012 152.119 58.0359 152.119ZM64.6708 152.153C64.256 152.153 63.8796 152.075 63.5415 151.919C63.2035 151.76 62.935 151.531 62.7362 151.233C62.5373 150.932 62.4379 150.568 62.4379 150.142C62.4379 149.767 62.5117 149.463 62.6594 149.23C62.8072 148.994 63.0046 148.81 63.2518 148.676C63.4989 148.543 63.7717 148.443 64.07 148.378C64.3711 148.31 64.6737 148.256 64.9776 148.216C65.3754 148.165 65.6978 148.126 65.945 148.101C66.195 148.072 66.3768 148.026 66.4904 147.96C66.6069 147.895 66.6651 147.781 66.6651 147.619V147.585C66.6651 147.165 66.5501 146.838 66.32 146.605C66.0927 146.372 65.7475 146.256 65.2844 146.256C64.8043 146.256 64.4279 146.361 64.1552 146.571C63.8825 146.781 63.6907 147.006 63.5799 147.244L62.6254 146.903C62.7958 146.506 63.0231 146.196 63.3072 145.974C63.5941 145.75 63.9066 145.594 64.2447 145.506C64.5856 145.415 64.9208 145.369 65.2504 145.369C65.4606 145.369 65.7021 145.395 65.9748 145.446C66.2504 145.494 66.516 145.595 66.7717 145.749C67.0302 145.902 67.2447 146.134 67.4151 146.443C67.5856 146.753 67.6708 147.168 67.6708 147.688V152H66.6651V151.114H66.614C66.5458 151.256 66.4322 151.408 66.2731 151.57C66.114 151.732 65.9023 151.869 65.6381 151.983C65.3739 152.097 65.0515 152.153 64.6708 152.153ZM64.8242 151.25C65.2219 151.25 65.5572 151.172 65.8299 151.016C66.1055 150.859 66.3129 150.658 66.4521 150.411C66.5941 150.163 66.6651 149.903 66.6651 149.631V148.71C66.6225 148.761 66.5288 148.808 66.3839 148.851C66.2418 148.891 66.0771 148.926 65.8896 148.957C65.7049 148.986 65.5245 149.011 65.3484 149.034C65.1751 149.054 65.0344 149.071 64.9265 149.085C64.6651 149.119 64.4208 149.175 64.1935 149.251C63.9691 149.325 63.7873 149.437 63.6481 149.588C63.5117 149.736 63.4435 149.937 63.4435 150.193C63.4435 150.543 63.5728 150.807 63.8313 150.986C64.0927 151.162 64.4237 151.25 64.8242 151.25ZM69.5064 152V145.455H74.6541V152H73.6484V146.392H70.5121V152H69.5064ZM77.4964 150.517L80.6499 145.455H81.8089V152H80.8033V146.938L77.6669 152H76.4908V145.455H77.4964V150.517ZM86.31 152.136C85.6964 152.136 85.168 151.991 84.7248 151.702C84.2816 151.412 83.9407 151.013 83.7021 150.504C83.4634 149.996 83.3441 149.415 83.3441 148.761C83.3441 148.097 83.4663 147.51 83.7106 147.001C83.9577 146.49 84.3015 146.091 84.7418 145.804C85.185 145.514 85.7021 145.369 86.293 145.369C86.7532 145.369 87.168 145.455 87.5373 145.625C87.9066 145.795 88.2092 146.034 88.445 146.341C88.6808 146.648 88.8271 147.006 88.8839 147.415H87.8782C87.8015 147.116 87.631 146.852 87.3668 146.622C87.1055 146.389 86.7532 146.273 86.31 146.273C85.918 146.273 85.5742 146.375 85.2788 146.58C84.9862 146.781 84.7575 147.067 84.5927 147.436C84.4308 147.803 84.3498 148.233 84.3498 148.727C84.3498 149.233 84.4293 149.673 84.5884 150.048C84.7504 150.423 84.9776 150.714 85.2702 150.922C85.5657 151.129 85.9123 151.233 86.31 151.233C86.5714 151.233 86.8086 151.188 87.0217 151.097C87.2347 151.006 87.4151 150.875 87.5629 150.705C87.7106 150.534 87.8157 150.33 87.8782 150.091H88.8839C88.8271 150.477 88.6864 150.825 88.462 151.135C88.2404 151.442 87.9464 151.686 87.5799 151.868C87.2163 152.047 86.793 152.136 86.31 152.136ZM92.2802 152.153C91.8654 152.153 91.489 152.075 91.1509 151.919C90.8129 151.76 90.5444 151.531 90.3455 151.233C90.1467 150.932 90.0472 150.568 90.0472 150.142C90.0472 149.767 90.1211 149.463 90.2688 149.23C90.4165 148.994 90.614 148.81 90.8612 148.676C91.1083 148.543 91.381 148.443 91.6793 148.378C91.9805 148.31 92.283 148.256 92.587 148.216C92.9847 148.165 93.3072 148.126 93.5543 148.101C93.8043 148.072 93.9862 148.026 94.0998 147.96C94.2163 147.895 94.2745 147.781 94.2745 147.619V147.585C94.2745 147.165 94.1594 146.838 93.9293 146.605C93.7021 146.372 93.3569 146.256 92.8938 146.256C92.4137 146.256 92.0373 146.361 91.7646 146.571C91.4918 146.781 91.3001 147.006 91.1893 147.244L90.2347 146.903C90.4052 146.506 90.6325 146.196 90.9165 145.974C91.2035 145.75 91.516 145.594 91.854 145.506C92.195 145.415 92.5302 145.369 92.8597 145.369C93.07 145.369 93.3114 145.395 93.5842 145.446C93.8597 145.494 94.1254 145.595 94.381 145.749C94.6396 145.902 94.854 146.134 95.0245 146.443C95.195 146.753 95.2802 147.168 95.2802 147.688V152H94.2745V151.114H94.2234C94.1552 151.256 94.0415 151.408 93.8825 151.57C93.7234 151.732 93.5117 151.869 93.2475 151.983C92.9833 152.097 92.6609 152.153 92.2802 152.153ZM92.4336 151.25C92.8313 151.25 93.1665 151.172 93.4393 151.016C93.7148 150.859 93.9222 150.658 94.0614 150.411C94.2035 150.163 94.2745 149.903 94.2745 149.631V148.71C94.2319 148.761 94.1381 148.808 93.9933 148.851C93.8512 148.891 93.6864 148.926 93.4989 148.957C93.3143 148.986 93.1339 149.011 92.9577 149.034C92.7844 149.054 92.6438 149.071 92.5359 149.085C92.2745 149.119 92.0302 149.175 91.8029 149.251C91.5785 149.325 91.3967 149.437 91.2575 149.588C91.1211 149.736 91.0529 149.937 91.0529 150.193C91.0529 150.543 91.1822 150.807 91.4407 150.986C91.7021 151.162 92.033 151.25 92.4336 151.25ZM96.2251 146.392V145.455H101.543V146.392H99.3956V152H98.3899V146.392H96.2251ZM103.88 147.824H105.755C106.522 147.824 107.108 148.018 107.515 148.408C107.921 148.797 108.124 149.29 108.124 149.886C108.124 150.278 108.033 150.635 107.851 150.956C107.669 151.274 107.402 151.528 107.05 151.719C106.698 151.906 106.266 152 105.755 152H103.01V145.455H104.016V151.062H105.755C106.152 151.062 106.479 150.957 106.735 150.747C106.99 150.537 107.118 150.267 107.118 149.938C107.118 149.591 106.99 149.308 106.735 149.089C106.479 148.871 106.152 148.761 105.755 148.761H103.88V147.824ZM113.03 154.455V145.455H114.001V146.494H114.121C114.195 146.381 114.297 146.236 114.428 146.06C114.561 145.881 114.751 145.722 114.999 145.582C115.249 145.44 115.587 145.369 116.013 145.369C116.564 145.369 117.05 145.507 117.47 145.783C117.891 146.058 118.219 146.449 118.455 146.955C118.69 147.46 118.808 148.057 118.808 148.744C118.808 149.438 118.69 150.038 118.455 150.547C118.219 151.053 117.892 151.445 117.474 151.723C117.057 151.999 116.575 152.136 116.03 152.136C115.609 152.136 115.273 152.067 115.02 151.928C114.767 151.786 114.572 151.625 114.436 151.446C114.3 151.264 114.195 151.114 114.121 150.994H114.036V154.455H113.03ZM114.018 148.727C114.018 149.222 114.091 149.658 114.236 150.036C114.381 150.411 114.592 150.705 114.871 150.918C115.149 151.128 115.49 151.233 115.893 151.233C116.314 151.233 116.665 151.122 116.946 150.901C117.23 150.676 117.443 150.375 117.585 149.997C117.73 149.616 117.803 149.193 117.803 148.727C117.803 148.267 117.732 147.852 117.589 147.483C117.45 147.111 117.239 146.817 116.955 146.601C116.673 146.382 116.32 146.273 115.893 146.273C115.484 146.273 115.141 146.376 114.862 146.584C114.584 146.788 114.374 147.075 114.232 147.445C114.089 147.811 114.018 148.239 114.018 148.727ZM123.087 152.136C122.456 152.136 121.912 151.997 121.455 151.719C121 151.438 120.649 151.045 120.402 150.543C120.158 150.037 120.036 149.449 120.036 148.778C120.036 148.108 120.158 147.517 120.402 147.006C120.649 146.491 120.993 146.091 121.433 145.804C121.876 145.514 122.393 145.369 122.984 145.369C123.325 145.369 123.662 145.426 123.994 145.54C124.327 145.653 124.629 145.838 124.902 146.094C125.175 146.347 125.392 146.682 125.554 147.099C125.716 147.517 125.797 148.031 125.797 148.642V149.068H120.751V148.199H124.774C124.774 147.83 124.7 147.5 124.553 147.21C124.408 146.92 124.2 146.692 123.93 146.524C123.663 146.357 123.348 146.273 122.984 146.273C122.584 146.273 122.237 146.372 121.945 146.571C121.655 146.767 121.432 147.023 121.276 147.338C121.119 147.653 121.041 147.991 121.041 148.352V148.932C121.041 149.426 121.126 149.845 121.297 150.189C121.47 150.53 121.71 150.79 122.017 150.969C122.324 151.145 122.68 151.233 123.087 151.233C123.351 151.233 123.589 151.196 123.803 151.122C124.018 151.045 124.205 150.932 124.361 150.781C124.517 150.628 124.638 150.437 124.723 150.21L125.695 150.483C125.592 150.812 125.42 151.102 125.179 151.352C124.938 151.599 124.639 151.793 124.284 151.932C123.929 152.068 123.53 152.136 123.087 152.136ZM132.474 145.455V151.062H133.395V154.114H132.389V152H127.327V145.455H128.332V151.062H131.469V145.455H132.474ZM137.618 152.136C136.987 152.136 136.443 151.997 135.986 151.719C135.531 151.438 135.18 151.045 134.933 150.543C134.689 150.037 134.567 149.449 134.567 148.778C134.567 148.108 134.689 147.517 134.933 147.006C135.18 146.491 135.524 146.091 135.964 145.804C136.408 145.514 136.925 145.369 137.516 145.369C137.857 145.369 138.193 145.426 138.526 145.54C138.858 145.653 139.161 145.838 139.433 146.094C139.706 146.347 139.923 146.682 140.085 147.099C140.247 147.517 140.328 148.031 140.328 148.642V149.068H135.283V148.199H139.305C139.305 147.83 139.232 147.5 139.084 147.21C138.939 146.92 138.732 146.692 138.462 146.524C138.195 146.357 137.879 146.273 137.516 146.273C137.115 146.273 136.768 146.372 136.476 146.571C136.186 146.767 135.963 147.023 135.807 147.338C135.651 147.653 135.572 147.991 135.572 148.352V148.932C135.572 149.426 135.658 149.845 135.828 150.189C136.001 150.53 136.241 150.79 136.548 150.969C136.855 151.145 137.212 151.233 137.618 151.233C137.882 151.233 138.121 151.196 138.334 151.122C138.55 151.045 138.736 150.932 138.892 150.781C139.048 150.628 139.169 150.437 139.254 150.21L140.226 150.483C140.124 150.812 139.952 151.102 139.71 151.352C139.469 151.599 139.17 151.793 138.815 151.932C138.46 152.068 138.061 152.136 137.618 152.136ZM141.858 152V145.455H147.006V152H146V146.392H142.864V152H141.858ZM147.952 146.392V145.455H153.27V146.392H151.122V152H150.116V146.392H147.952Z" fill="black" fill-opacity="0.64"/>
<defs>
<radialGradient id="paint0_radial_178_21111" cx="0" cy="0" r="1" gradientUnits="userSpaceOnUse" gradientTransform="translate(104 104) rotate(90) scale(104)">
<stop stop-color="#C4FF61"/>
<stop offset="1" stop-color="white" stop-opacity="0"/>
</radialGradient>
</defs>
</svg>
